<?xml version="1.0" encoding="utf-8"?>
<!-- Generator: Adobe Illustrator 24.2.3, SVG Export Plug-In . SVG Version: 6.00 Build 0)  -->
<svg version="1.1" id="Layer_1" xmlns="http://www.w3.org/2000/svg" xmlns:xlink="http://www.w3.org/1999/xlink" x="0px" y="0px"
	 viewBox="0 0 1000 784.4" style="enable-background:new 0 0 1000 784.4;" xml:space="preserve">
<style type="text/css">
	.st0{fill:#F89C4D;}
	.st1{fill:#F774B6;}
	.st2{fill:url(#SVGID_1_);}
	.st3{fill:url(#SVGID_2_);}
	.st4{fill:url(#SVGID_3_);}
	.st5{fill:url(#SVGID_4_);}
	.st6{fill:#494368;}
</style>
<g>
	<g>
		<path class="st0" d="M254.2,320.5l125-114.7l-21.1-23l-150,137.7H208"/>
		<path class="st1" d="M793,320.5L793,320.5L643,182.9l-21.1,23l125,114.6"/>
		<path class="st1" d="M612.5,485.6H705"/>
		<path class="st1" d="M476.5,351.6h48"/>
		<path class="st1" d="M296,485.6h92.5"/>
	</g>
	
		<linearGradient id="SVGID_1_" gradientUnits="userSpaceOnUse" x1="369.5257" y1="771.9042" x2="676.6235" y2="354.8408" gradientTransform="matrix(1 0 0 -1 0 784.3162)">
		<stop  offset="0" style="stop-color:#41D1FF"/>
		<stop  offset="1" style="stop-color:#BD34FE"/>
	</linearGradient>
	<path class="st2" d="M761.9,147.8L515.2,589c-5.1,9.1-18.2,9.2-23.4,0.1L240.2,147.8c-5.6-9.9,2.8-21.8,14-19.8l247,44.2
		c1.6,0.3,3.2,0.3,4.8,0L747.8,128C758.9,126,767.4,137.9,761.9,147.8z"/>
	<g transform="translate(500 359.485)">
		<g>
			<linearGradient id="SVGID_2_" gradientUnits="userSpaceOnUse" x1="-247.0339" y1="-116.9041" x2="238.4198" y2="163.3728">
				<stop  offset="1.614687e-07" style="stop-color:#F89C4B"/>
				<stop  offset="1" style="stop-color:#F774B6"/>
			</linearGradient>
			<path class="st3" d="M-291.9-39h-0.1v90.7c0,41,39.5,74.4,88,74.4h92.5c48.5,0,88-33.4,88-74.4V-7.9h48v59.6
				c0,41,39.5,74.4,88,74.4H205c48.5,0,88-33.4,88-74.4V-39l0,0"/>
			<linearGradient id="SVGID_3_" gradientUnits="userSpaceOnUse" x1="-184.2375" y1="-145.6499" x2="185.2875" y2="67.6955">
				<stop  offset="1.614687e-07" style="stop-color:#F89C4B"/>
				<stop  offset="1" style="stop-color:#F774B6"/>
			</linearGradient>
			<path class="st4" d="M246.9-39h-492.7"/>
		</g>
	</g>
	
		<linearGradient id="SVGID_4_" gradientUnits="userSpaceOnUse" x1="498.5728" y1="743.9003" x2="547.4368" y2="408.6982" gradientTransform="matrix(1 0 0 -1 0 784.3162)">
		<stop  offset="0" style="stop-color:#FFEA83"/>
		<stop  offset="8.333330e-02" style="stop-color:#FFDD35"/>
		<stop  offset="1" style="stop-color:#FFA800"/>
	</linearGradient>
	<path class="st5" d="M590.5,35.4L429.9,66.8c-2.6,0.5-4.6,2.8-4.8,5.4l-9.9,166.9c-0.2,3.9,3.4,7,7.2,6.1l44.7-10.3
		c4.2-1,8,2.7,7.1,6.9L461,306.9c-0.9,4.4,3.2,8.1,7.5,6.8l27.6-8.4c4.3-1.3,8.4,2.5,7.5,6.8l-21.1,102.2c-1.3,6.4,7.2,9.9,10.7,4.4
		l2.4-3.7l130.9-261.2c2.2-4.4-1.6-9.4-6.4-8.4l-46,8.9c-4.3,0.8-8-3.2-6.8-7.4l30-104.1C598.5,38.6,594.8,34.5,590.5,35.4z"/>
	<path class="st6" d="M259.6,654.2c4,0,7.3,1.4,10.1,4.2c2.8,2.8,4.2,6.2,4.2,10.1v49.6h-50.7c-4,0-7.3-1.4-10.1-4.2
		c-2.8-2.8-4.2-6.2-4.2-10.1v-23.6H262v-11.7c0-0.7-0.2-1.2-0.7-1.7s-1-0.7-1.7-0.7h-50.7v-11.9L259.6,654.2L259.6,654.2z
		 M262,706.2v-14.1h-41.2v11.7c0,0.7,0.2,1.2,0.7,1.7s1,0.7,1.7,0.7L262,706.2L262,706.2z M376.7,654.2h12.7l-24,63.9h-9.7
		l-21.5-47.5l-20.3,47.5l-0.2-0.1l0.1,0.1h-9.6l-25.1-63.9h12.6l17.3,42.4l18.4-42.4H341l19.5,42.4L376.7,654.2z M443.9,654.2
		c4,0,7.3,1.4,10.1,4.2c2.8,2.8,4.2,6.2,4.2,10.1v23.6h-53.1v11.7c0,0.7,0.2,1.2,0.7,1.7s1,0.7,1.7,0.7h50.7v11.9h-50.7
		c-4,0-7.3-1.4-10.1-4.2c-2.8-2.8-4.2-6.2-4.2-10.1v-35.3c0-4,1.4-7.3,4.2-10.1c2.8-2.8,6.2-4.2,10.1-4.2H443.9L443.9,654.2z
		 M405.1,680.2h41.2v-11.7c0-0.7-0.2-1.2-0.7-1.7s-1-0.7-1.7-0.7h-36.4c-0.7,0-1.2,0.2-1.7,0.7s-0.7,1-0.7,1.7L405.1,680.2
		L405.1,680.2z M534.1,668.6v2.4h-11.9v-2.4c0-0.7-0.2-1.2-0.7-1.7s-1-0.7-1.7-0.7h-36.4c-0.7,0-1.2,0.2-1.7,0.7s-0.7,1-0.7,1.7v9.3
		c0,0.7,0.2,1.2,0.7,1.7s1,0.7,1.7,0.7h36.4c4,0,7.3,1.4,10.1,4.2c2.8,2.8,4.2,6.2,4.2,10.1v9.3c0,4-1.4,7.3-4.2,10.1
		c-2.8,2.8-6.2,4.2-10.1,4.2h-36.4c-4,0-7.3-1.4-10.1-4.2c-2.8-2.8-4.2-6.2-4.2-10.1v-2.4H481v2.4c0,0.7,0.2,1.2,0.7,1.7
		s1,0.7,1.7,0.7h36.4c0.7,0,1.2-0.2,1.7-0.7s0.7-1,0.7-1.7v-9.3c0-0.7-0.2-1.2-0.7-1.7s-1-0.7-1.7-0.7h-36.4c-4,0-7.3-1.4-10.1-4.2
		c-2.8-2.8-4.2-6.2-4.2-10.1v-9.3c0-4,1.4-7.3,4.2-10.1c2.8-2.8,6.2-4.2,10.1-4.2h36.4c4,0,7.3,1.4,10.1,4.2
		C532.7,661.2,534.1,664.6,534.1,668.6z M559.3,654.2h36.4c4,0,7.3,1.4,10.1,4.2c2.8,2.8,4.2,6.2,4.2,10.1v35.3
		c0,4-1.4,7.3-4.2,10.1s-6.2,4.2-10.1,4.2h-36.4c-4,0-7.3-1.4-10.1-4.2c-2.8-2.8-4.2-6.2-4.2-10.1v-35.3c0-4,1.4-7.3,4.2-10.1
		C552,655.6,555.4,654.2,559.3,654.2L559.3,654.2z M595.7,666.1h-36.4c-0.7,0-1.2,0.2-1.7,0.7s-0.7,1-0.7,1.7v35.3
		c0,0.7,0.2,1.2,0.7,1.7s1,0.7,1.7,0.7h36.4c0.7,0,1.2-0.2,1.7-0.7s0.7-1,0.7-1.7v-35.3c0-0.7-0.2-1.2-0.7-1.7
		C596.9,666.4,596.4,666.1,595.7,666.1z M703.2,654.2c4,0,7.3,1.4,10.1,4.2s4.2,6.2,4.2,10.1v49.6h-11.8v-49.6
		c0-0.7-0.2-1.2-0.7-1.7s-1.1-0.7-1.8-0.7H678c-0.7,0-1.2,0.2-1.7,0.7s-0.7,1-0.7,1.7v49.6h-11.9v-49.6c0-0.7-0.2-1.2-0.7-1.7
		s-1-0.7-1.7-0.7H636c-0.7,0-1.2,0.2-1.7,0.7s-0.7,1-0.7,1.7v49.6h-11.9v-63.9H703.2z M779.7,654.2c4,0,7.3,1.4,10.1,4.2
		s4.2,6.2,4.2,10.1v23.6h-53.1v11.7c0,0.7,0.2,1.2,0.7,1.7s1,0.7,1.7,0.7H794v11.9h-50.7c-4,0-7.3-1.4-10.1-4.2s-4.2-6.2-4.2-10.1
		v-35.3c0-4,1.4-7.3,4.2-10.1s6.2-4.2,10.1-4.2H779.7L779.7,654.2z M740.9,680.2h41.2v-11.7c0-0.7-0.2-1.2-0.7-1.7s-1-0.7-1.7-0.7
		h-36.4c-0.7,0-1.2,0.2-1.7,0.7s-0.7,1-0.7,1.7L740.9,680.2L740.9,680.2z"/>
</g>
</svg>
