<?xml version="1.0" encoding="utf-8"?>
<!-- Generator: Adobe Illustrator 24.2.1, SVG Export Plug-In . SVG Version: 6.00 Build 0)  -->
<svg version="1.1" xmlns="http://www.w3.org/2000/svg" xmlns:xlink="http://www.w3.org/1999/xlink" x="0px" y="0px"
	 viewBox="0 0 1000 700" style="enable-background:new 0 0 1000 700;" xml:space="preserve">
<style type="text/css">
	.st0{fill:#494368;}
	.st1{fill:#F774B6;}
	.st2{clip-path:url(#SVGID_2_);}
	.st3{fill:#41B883;}
	.st4{fill:#35495E;}
	.st5{fill:#FDB436;}
</style>
<g>
	<path class="st0" d="M258.2,562.9c4,0,7.3,1.4,10.1,4.2c2.8,2.8,4.2,6.2,4.2,10.1v49.6h-50.7c-4,0-7.3-1.4-10.1-4.2
		c-2.8-2.8-4.2-6.2-4.2-10.1v-23.6h53.1v-11.7c0-0.7-0.2-1.2-0.7-1.7s-1-0.7-1.7-0.7h-50.7v-11.9H258.2L258.2,562.9z M260.6,614.9
		v-14.1h-41.2v11.7c0,0.7,0.2,1.2,0.7,1.7s1,0.7,1.7,0.7L260.6,614.9L260.6,614.9z M375.3,562.9H388l-24,63.9h-9.7l-21.5-47.5
		l-20.3,47.5l-0.2-0.1l0.1,0.1h-9.6l-25.1-63.9h12.6l17.3,42.4l18.4-42.4h13.6l19.5,42.4L375.3,562.9L375.3,562.9z M442.5,562.9
		c4,0,7.3,1.4,10.1,4.2c2.8,2.8,4.2,6.2,4.2,10.1v23.6h-53.1v11.7c0,0.7,0.2,1.2,0.7,1.7s1,0.7,1.7,0.7h50.7v11.9h-50.7
		c-4,0-7.3-1.4-10.1-4.2c-2.8-2.8-4.2-6.2-4.2-10.1v-35.3c0-4,1.4-7.3,4.2-10.1c2.8-2.8,6.2-4.2,10.1-4.2L442.5,562.9L442.5,562.9z
		 M403.7,588.9h41.2v-11.7c0-0.7-0.2-1.2-0.7-1.7s-1-0.7-1.7-0.7h-36.4c-0.7,0-1.2,0.2-1.7,0.7s-0.7,1-0.7,1.7V588.9z M557.9,562.9
		h36.4c4,0,7.3,1.4,10.1,4.2c2.8,2.8,4.2,6.2,4.2,10.1v35.3c0,4-1.4,7.3-4.2,10.1c-2.8,2.8-6.2,4.2-10.1,4.2h-36.4
		c-4,0-7.3-1.4-10.1-4.2c-2.8-2.8-4.2-6.2-4.2-10.1v-35.3c0-4,1.4-7.3,4.2-10.1C550.6,564.3,554,562.9,557.9,562.9L557.9,562.9z
		 M594.3,574.8h-36.4c-0.7,0-1.2,0.2-1.7,0.7s-0.7,1-0.7,1.7v35.3c0,0.7,0.2,1.2,0.7,1.7s1,0.7,1.7,0.7h36.4c0.7,0,1.2-0.2,1.7-0.7
		s0.7-1,0.7-1.7v-35.3c0-0.7-0.2-1.2-0.7-1.7C595.5,575.1,595,574.8,594.3,574.8L594.3,574.8z M701.8,562.9c4,0,7.3,1.4,10.1,4.2
		c2.8,2.8,4.2,6.2,4.2,10.1v49.6h-11.8v-49.6c0-0.7-0.2-1.2-0.7-1.7s-1.1-0.7-1.8-0.7h-25.2c-0.7,0-1.2,0.2-1.7,0.7s-0.7,1-0.7,1.7
		v49.6h-11.9v-49.6c0-0.7-0.2-1.2-0.7-1.7s-1-0.7-1.7-0.7h-25.3c-0.7,0-1.2,0.2-1.7,0.7s-0.7,1-0.7,1.7v49.6h-11.9v-63.9H701.8
		L701.8,562.9z M778.3,562.9c4,0,7.3,1.4,10.1,4.2c2.8,2.8,4.2,6.2,4.2,10.1v23.6h-53.1v11.7c0,0.7,0.2,1.2,0.7,1.7s1,0.7,1.7,0.7
		h50.7v11.9h-50.7c-4,0-7.3-1.4-10.1-4.2c-2.8-2.8-4.2-6.2-4.2-10.1v-35.3c0-4,1.4-7.3,4.2-10.1s6.2-4.2,10.1-4.2L778.3,562.9
		L778.3,562.9z M739.5,588.9h41.2v-11.7c0-0.7-0.2-1.2-0.7-1.7s-1-0.7-1.7-0.7h-36.4c-0.7,0-1.2,0.2-1.7,0.7s-0.7,1-0.7,1.7V588.9
		L739.5,588.9z"/>
</g>
<g transform="translate(500 359.485)">
	<g>
		<path class="st1" d="M292.5-98.9l-150-137.6l-21.1,23l125,114.6h-492.7l125-114.7l-21.1-23l-150,137.7h-0.1v90.7
			c0,41,39.5,74.4,88,74.4h92.5c48.5,0,88-33.4,88-74.4v-59.6h48v59.6c0,41,39.5,74.4,88,74.4h92.5c48.5,0,88-33.4,88-74.4
			L292.5-98.9L292.5-98.9z"/>
	</g>
</g>
<g transform="matrix(2.08452 0 0 2.07583 500 289.74)">
	<g>
		<defs>
			<rect id="SVGID_1_" x="-266.8" y="-231.7" width="533.6" height="458.8"/>
		</defs>
		<clipPath id="SVGID_2_">
			<use xlink:href="#SVGID_1_"  style="overflow:visible;"/>
		</clipPath>
		<g class="st2">
			<path class="st3" d="M76.8-113.9H128L0,106.9l-128-220.8h97.9L0-62.7l29.4-51.2H76.8z"/>
			<path class="st3" d="M-128-113.9L0,106.9l128-220.8H76.8L0,18.6l-77.4-132.5H-128z"/>
			<path class="st4" d="M-77.4-113.9L0,19.2l76.8-133.1H29.4L0-62.7l-30.1-51.2H-77.4z"/>
		</g>
	</g>
</g>
<g transform="translate(500 359.485)">
	<g>
		<path class="st1" d="M-292.4-98.9h-0.1v90.7c0,41,39.5,74.4,88,74.4h92.5c48.5,0,88-33.4,88-74.4v-59.6h48v59.6
			c0,41,39.5,74.4,88,74.4h92.5c48.5,0,88-33.4,88-74.4v-90.7l0,0"/>
		<path class="st1" d="M246.4-98.9h-492.7"/>
	</g>
</g>
<path class="st5" d="M554.2,600.8l-46.1-14.1c-1.1-0.3-1.5-1.8-0.7-2.6l40.9-41.9c1.2-1.3-0.2-3.3-1.8-2.6l-101.1,45.8
	c-1.3,0.6-1.2,2.5,0.2,3l41.9,13.4c1.1,0.3,1.5,1.7,0.7,2.6L452,645.7c-1.1,1.3,0.3,3.2,1.8,2.5l100.5-44.4
	C555.7,603.2,555.6,601.3,554.2,600.8z"/>
</svg>
